<?xml version="1.0" standalone="no"?>
<!DOCTYPE svg PUBLIC "-//W3C//DTD SVG 20010904//EN"
 "http://www.w3.org/TR/2001/REC-SVG-20010904/DTD/svg10.dtd">
<svg version="1.0" xmlns="http://www.w3.org/2000/svg"
 width="512.000000pt" height="512.000000pt" viewBox="0 0 512.000000 512.000000"
 preserveAspectRatio="xMidYMid meet">
<metadata>
Created by potrace 1.14, written by Peter Selinger 2001-2017
</metadata>
<g transform="translate(0.000000,512.000000) scale(0.100000,-0.100000)"
fill="#000000" stroke="none">
<path d="M3833 4683 c-43 -54 -85 -105 -93 -114 -8 -9 -22 -25 -30 -35 -16
-20 -43 -54 -97 -120 -386 -473 -510 -626 -538 -659 -18 -22 -88 -107 -154
-190 -67 -82 -137 -167 -154 -188 -68 -82 -91 -110 -316 -387 -128 -157 -240
-294 -249 -305 -10 -11 -76 -92 -147 -180 -71 -88 -194 -239 -273 -335 -268
-327 -357 -436 -387 -474 -16 -21 -35 -44 -40 -50 -10 -11 -316 -385 -749
-916 -114 -140 -215 -264 -224 -275 -10 -11 -35 -42 -57 -70 -22 -27 -42 -52
-46 -55 -3 -3 -32 -39 -64 -80 -33 -41 -62 -77 -65 -80 -3 -3 -36 -42 -73 -88
l-68 -82 2556 0 c2430 0 2556 1 2551 18 -6 20 -226 900 -231 922 -2 8 -8 35
-15 60 -7 25 -14 52 -15 60 -2 8 -76 303 -165 655 -89 352 -163 649 -165 660
-3 11 -37 146 -76 300 -39 154 -72 289 -75 300 -2 11 -18 74 -35 140 -17 66
-32 128 -34 139 -3 10 -16 64 -31 120 -14 55 -27 108 -29 116 -2 8 -11 44 -20
80 -9 36 -18 70 -19 75 -13 72 -283 1135 -288 1135 -4 0 -42 -44 -85 -97z"/>
</g>
</svg>
